<?xml version="1.0" standalone="no"?><!DOCTYPE svg PUBLIC "-//W3C//DTD SVG 1.1//EN" "http://www.w3.org/Graphics/SVG/1.1/DTD/svg11.dtd"><svg t="1597772442665" class="icon" viewBox="0 0 1024 1024" version="1.1" xmlns="http://www.w3.org/2000/svg" p-id="36947" xmlns:xlink="http://www.w3.org/1999/xlink" width="200" height="200"><defs><style type="text/css"></style></defs><path d="M847.644444 0c56.32 0 102.4 46.08 102.4 102.4v819.2c0 56.32-46.08 102.4-102.4 102.4H130.844444C74.524444 1024 28.444444 977.92 28.444444 921.6V102.4C28.444444 46.08 74.524444 0 130.844444 0h716.8z m0 102.4H130.844444v819.2h716.8V102.4z m-204.8 204.8c30.72 0 51.2 20.48 51.2 51.2s-20.48 51.2-51.2 51.2H540.444444v256c0 30.72-20.48 51.2-51.2 51.2s-51.2-20.48-51.2-51.2V409.6H335.644444c-30.72 0-51.2-20.48-51.2-51.2s20.48-51.2 51.2-51.2z" p-id="36948" fill="#ffffff"></path></svg>