<?xml version="1.0" standalone="no"?><!DOCTYPE svg PUBLIC "-//W3C//DTD SVG 1.1//EN" "http://www.w3.org/Graphics/SVG/1.1/DTD/svg11.dtd"><svg t="1597772663639" class="icon" viewBox="0 0 1024 1024" version="1.1" xmlns="http://www.w3.org/2000/svg" p-id="43530" xmlns:xlink="http://www.w3.org/1999/xlink" width="200" height="200"><defs><style type="text/css"></style></defs><path d="M64 160c0-25.6 19.2-38.4 38.4-38.4h300.8c25.6 0 44.8 19.2 44.8 38.4v19.2h128v-19.2c0-25.6 19.2-38.4 38.4-38.4h300.8c25.6 0 38.4 19.2 38.4 38.4v108.8c0 25.6-19.2 38.4-38.4 38.4H614.4c-19.2 0-38.4-19.2-38.4-38.4v-25.6H448v19.2c0 25.6-19.2 38.4-38.4 38.4H102.4c-19.2 6.4-38.4-12.8-38.4-32V160z m0 300.8c0-25.6 19.2-38.4 38.4-38.4h300.8c25.6-6.4 44.8 12.8 44.8 38.4v19.2h128v-19.2c0-25.6 19.2-38.4 38.4-38.4h300.8c25.6 0 38.4 19.2 38.4 38.4v108.8c0 25.6-19.2 38.4-38.4 38.4H614.4c-19.2 0-38.4-19.2-38.4-44.8v-19.2H448v19.2c0 25.6-19.2 38.4-38.4 38.4H102.4c-19.2 6.4-38.4-12.8-38.4-38.4V460.8z m896 403.2c0 25.6-19.2 38.4-38.4 38.4H614.4c-25.6 0-38.4-19.2-38.4-38.4v-19.2H448v19.2c0 25.6-19.2 38.4-38.4 38.4H102.4c-25.6 0-38.4-19.2-38.4-38.4v-108.8c0-25.6 19.2-38.4 38.4-38.4h300.8c25.6 0 38.4 19.2 38.4 38.4v19.2H576v-19.2c0-25.6 19.2-38.4 38.4-38.4h300.8c25.6 0 38.4 19.2 38.4 38.4l6.4 108.8z" p-id="43531" fill="#ffffff"></path></svg>