<?xml version="1.0" standalone="no"?><!DOCTYPE svg PUBLIC "-//W3C//DTD SVG 1.1//EN" "http://www.w3.org/Graphics/SVG/1.1/DTD/svg11.dtd"><svg t="1596358377506" class="icon" viewBox="0 0 1024 1024" version="1.1" xmlns="http://www.w3.org/2000/svg" p-id="3262" xmlns:xlink="http://www.w3.org/1999/xlink" width="200" height="200"><defs><style type="text/css"></style></defs><path d="M60 60v704h364.7c-14.4-32.4-22-67.8-22-104.3 0-25.8 3.8-51.1 11.1-75.1v-33.2h12.7c10.8-23.1 25-44.7 42.5-64h-55.2V336.7h223.7v67c7.4-0.6 14.8-1 22.3-1 14.2 0 28.2 1.2 42 3.4v-69.4h190v150.7h-41.3c42.8 47.3 66.3 108 66.3 172.3 0 35.1-7 69.3-20.5 100.8l3.5 3.5H956V60H60z m289.6 640.1H124.2V551.4h225.4v148.7z m0-212.7H124.2V336.7h225.4v150.7z m0-214.7H124.2V124h225.4v148.7z m287.9 0H413.8V124h223.7v148.7z m254.3 0h-190V124h190v148.7z" fill="#1296db" p-id="3263"></path><path d="M954.6 909.3L817 771.8c23.2-32.5 35.8-71.3 35.8-112 0-51.6-20.1-100-56.5-136.5-36.5-36.5-84.9-56.5-136.5-56.5-51.6 0-100 20.1-136.5 56.5-36.5 36.5-56.5 84.9-56.5 136.5s20.1 100 56.5 136.5c36.5 36.5 84.9 56.5 136.5 56.5 40.7 0 79.5-12.5 112-35.7l137.6 137.6c6.2 6.2 14.4 9.4 22.6 9.4 8.2 0 16.4-3.1 22.6-9.4 12.5-12.6 12.5-32.9 0-45.4zM659.8 788.8c-71.1 0-129-57.9-129-129s57.9-129 129-129 129 57.9 129 129-57.9 129-129 129z" fill="#1296db" p-id="3264"></path></svg>